<svg height="60" viewBox="0 0 60 60" width="60" xmlns="http://www.w3.org/2000/svg"><g fill="none" fill-rule="evenodd"><rect fill="#a1cd90" height="60" rx="4" width="60"/><g transform="translate(15 17)"><g stroke="#fff" stroke-width="2"><path d="m8.4375 15.1785714s4.21875 4.4642857 4.21875 9.8214286c-3.75 0-2.34375 0-5.15625 0-.46875-4.0178571-2.8125-6.6964286-5.15625-9.8214286"/><path d="m10.5 6.32905911v8.90991609l16.3465125 4.5197521c1.3662834.5083878 2.1534875.1568496 2.1534875-.6282968v-16.57682198c0-.84047643-.9869414-1.36244516-2.3897596-1.01717278-.1161953.04024658-.3344399.11521002-.6422422.2199375-.5121856.17426743-1.0889089.36838009-1.7176899.57738827-1.7965716.59718425-3.6511822 1.19439384-5.4643705 1.75211873-.619885.19067257-1.2255991.37379906-1.8147762.54843493-2.6158118.77534327-4.8106784 1.35646339-6.4711616 1.69474394z"/><path d="m10.25 15.0714286v-8.71428574h-9.25163755c.00703506 0 .00163755.00541961.00163755.00797399v8.69833775c0 .0088213-.00084191.007974-.00163755.007974z"/><path d="m15.5 8.5 6.53125-1.80357143" stroke-linecap="round"/></g><ellipse cx="25.3125" cy="5.357143" fill="#fff" rx="1" ry="1"/></g></g></svg>