<svg height="61" viewBox="0 0 61 61" width="61" xmlns="http://www.w3.org/2000/svg"><g fill="none" fill-rule="evenodd"><rect fill="#7678b8" fill-rule="nonzero" height="60" rx="4" width="60" x=".4905" y=".433153"/><circle cx="30.857137" cy="30.733447" r="14.881373" stroke="#fff" stroke-width="2"/><g transform="translate(14.9905 15.5)"><circle cx="15.866637" cy="15.233447" r="14.881373"/><path d="m6.76164537 2.25850058c.17076781-.10785335.34365038-.21200585.51811904-.3124575.0967508-.05604145.19244421-.11366898.29078109-.16759565.2453135-.134288.49432786-.25958821.74598567-.37907281.10891074-.0518119.21887886-.09992295.32937568-.14909139.18451382-.0819474.37008502-.15966525.55724231-.23421095.10309511-.04123805.20566153-.08406217.31034272-.12265675.26751861-.09939427.53820932-.19032945.81101492-.27333423.0999229-.03066419.2019607-.05762752.302941-.08617694.2120059-.0597423.4250691-.11525505.6402471-.16548088.0962221-.02273379.1924442-.04652497.289195-.06714399.2955393-.06291446.5931934-.11789852.8929623-.16283742.0682014-.01004516.1374602-.01691817.2056615-.02643464.2527153-.03383635.5070165-.06132838.7623752-.08247609.0888204-.0074017.1781695-.0148034.2675186-.02061902.3188018-.01903295.6381323-.03330766.9595776-.03330766.2796785 0 .5588284.00951648.8369209.02537726.0798326.00422955.1586078.01215994.2379118.01797556.2003746.0148034.4007492.03172157.6000664.05445537.0882917.01004516.1760547.0222051.2638177.03383634.192973.02537726.3848885.05392668.5762753.08723433.0851196.0148034.1697104.0296068.2543013.04546759.1993172.03806589.397577.08089001.5947795.12688629.0729596.01691818.1464479.03277896.2188788.05075452.2431988.06079969.4848114.12741499.7243093.20037461.0243199.0074017.0491684.01321732.0734883.02061902.2558874.07930394.5086026.16706696.7597317.25958821.1004517.0375372.1987885.07824655.2981828.11789852.1459192.05762752.2907811.11631243.4351143.1786982.1247715.05445536.2484856.11049681.3716711.16812434.1110255.0518119.2209936.10520988.3309617.15966525.0803613.03912327.1607226.08089001.2405553.12265675-2.0206643.80995751-3.2757812 1.80231407-4.6805182 3.63000541-.1993172.25853082-.3002976.57521786-.2913098.89137621-.1210707-.29183847-.2987115-.51388949-.5355659-.6693252-.4895696-.32144528-1.1303454-.29871148-1.9577498.07031616l-.1506775.01691817c-1.0605579.11842721-1.6447635.18398512-1.6976328 1.33759302-.0269634.58367695.2860228 1.15995221.7972688 1.46765147.1295298.07771786.2654039.13428799.4039214.16865303.0148034.05022583.0380659.10150904.0724309.15332094l.2130633.29448194.3399495-.05657014c.2907811-.04916844.5350372-.05974229.7005181-.05498406-.0248486.23473965.0163895.47476622.1221281.68888684.1469766.29712541.3996918.51388949.7116206.61011159.2981828.0919926.3240887.1813417.3600398.3045271.1697105.5842057.5556563 1.0161478 1.0589719 1.1837434.4811105.1612513 1.0156191.0570988 1.4687089-.2828507.2717481-.2056615.4255977-.1628374 1.0193199.1242428.3875319.1871573.8702285.4208396 1.4951435.5012009.0983368.0121599.1570218.0417667.1786982.0645005.4298273.4515038.7597317 1.0129756 1.0785335 1.5559432.4885122.8316339.9500611 1.6178003 1.7441578 2.029652.6212142.3230314-.0745457 2.1464932-.4081509 3.0225373-.067144.1765834-.1300584.3410069-.182399.4879835-.805728.6206855-1.2979411 1.3254331-1.7742934 2.007447-.4266552.6106403-.867585 1.2424283-1.5511849 1.8303348-1.0325373.8887327-1.9059379 1.4211265-2.9199709 1.781695-.1665382.0586849-.2749203-.0401806-.3140436-.0861769-.0370085-.0433528-.1141976-.1612514-.0317215-.3087567 1.043111-1.8673433 2.2495882-4.5007626.6878294-5.7934167-1.5310946-1.2667482-2.1041977-3.1060708-1.4613071-4.6847477.2733342-.6703826-.0317216-1.4221839-.7068624-1.7753508-.0576276-.0703161-.0988656-.3774867-.1258289-.5810335-.0597423-.4467455-.1337593-1.0024017-.4641924-1.4872131-.1374602-.20090327-.383831-.38224493-.5535415-.46472102-.645534-.31615835-1.2651621-.40656484-1.8641711-.49327047-.476881-.06978746-.927856-.13534538-1.3878189-.31140011-1.75155951-.67196867-2.99821735-3.51369297-3.90862651-5.58934127-.13005846-.29712541-.25535867-.58209088-.37590065-.84908079.06291445-.04018066.12688629-.08089001.19085813-.12159936z" stroke="#fff" stroke-width="2"/></g></g></svg>