<svg height="35" viewBox="0 0 160 35" width="160" xmlns="http://www.w3.org/2000/svg"><g fill="none" fill-rule="evenodd"><g fill="#232323"><path d="m125.470968 24.653125-1.21659-3.040625h-6.06083l-1.15023 3.040625h-4.114286l6.569585-15.4875h3.67189l6.503226 15.4875zm-4.202765-11.353125-1.990784 5.315625h3.937328z"/><path d="m112.309677 18.8125c0 .933338-.158523 1.7828087-.475576 2.5484375-.317052.7656288-.770504 1.4218723-1.360368 1.96875-.589865.5468777-1.301379.973436-2.134563 1.2796875-.833183.3062515-1.75852.459375-2.776036.459375-1.032264 0-1.961287-.1531235-2.787097-.459375-.825811-.3062515-1.526265-.7328098-2.101383-1.2796875s-1.0175096-1.2031212-1.3271886-1.96875c-.3096789-.7656288-.4645161-1.6150995-.4645161-2.5484375v-9.646875h3.7603687v9.340625c0 .4229188.055299.8239564.165899 1.203125.110599.3791686.280183.7182277.508755 1.0171875.228573.2989598.530874.5359366.906913.7109375s.82949.2625 1.360368.2625c.530879 0 .98433-.0874991 1.360369-.2625s.682027-.4119777.917972-.7109375c.235946-.2989598.40553-.6380189.508756-1.0171875.103227-.3791686.154839-.7802062.154839-1.203125v-9.340625h3.782488z"/><path d="m96.7889401 23.7125c-.7668241.393752-1.6626677.7145821-2.6875576.9625s-2.1419295.371875-3.3511521.371875c-1.2534625 0-2.407368-.196873-3.4617511-.590625-1.0543832-.393752-1.9612866-.9479131-2.7207374-1.6625s-1.3529932-1.5713492-1.7806451-2.5703125-.6414747-2.1109314-.6414747-3.3359375c0-1.2395895.2175094-2.362495.6525346-3.36875s1.0359408-1.8630173 1.802765-2.5703125c.7668241-.7072952 1.6663542-1.25051894 2.6986175-1.6296875 1.0322632-.37916856 2.1456161-.56875 3.3400921-.56875 1.2387159 0 2.3889348.18593564 3.4506913.5578125 1.0617564.37187686 1.9244206.871351 2.5880184 1.4984375l-2.3889401 2.690625c-.3686654-.4229188-.8552965-.7692695-1.4599078-1.0390625s-1.2903188-.4046875-2.0571429-.4046875c-.6635978 0-1.2755732.1203113-1.8359447.3609375-.5603714.2406262-1.0470025.5760395-1.4599078 1.00625s-.7336394.940622-.962212 1.53125-.3428571 1.235934-.3428571 1.9359375c0 .7145869.1032247 1.3708303.3096774 1.96875.2064526.5979197.5124404 1.111977.9179723 1.5421875.405532.4302105.9069095.7656238 1.5041475 1.00625s1.2792588.3609375 2.0460829.3609375c.4423986 0 .8626709-.0328122 1.2608295-.0984375.3981587-.0656253.7668186-.1713534 1.1059908-.3171875v-2.821875h-2.9861751v-3.01875h6.4589862z"/><path d="m159.306912 16.865625c0 1.3562568-.254375 2.5265576-.763133 3.5109375-.508759.9843799-1.17972 1.7937468-2.012903 2.428125-.833184.6343782-1.773267 1.1010402-2.820277 1.4s-2.10875.4484375-3.185253.4484375h-5.839632v-15.4875h5.662673c1.105996 0 2.19723.12760289 3.273733.3828125s2.035019.678122 2.875576 1.26875 1.518891 1.3817659 2.035023 2.3734375c.516131.9916716.774193 2.2166594.774193 3.675zm-3.937327 0c0-.8750044-.143777-1.600518-.431336-2.1765625s-.670966-1.035415-1.150231-1.378125-1.024881-.5869784-1.636866-.7328125-1.242393-.21875-1.891244-.21875h-1.880185v9.05625h1.791706c.678344 0 1.330872-.0765617 1.957603-.2296875s1.179721-.4046858 1.658986-.7546875c.479265-.3500018.862672-.8166638 1.150231-1.4.287559-.5833363.431336-1.305204.431336-2.165625z"/><path d="m80.4866359 16.865625c0 1.3562568-.2543753 2.5265576-.7631336 3.5109375s-1.1797193 1.7937468-2.0129032 2.428125-1.7732667 1.1010402-2.8202765 1.4c-1.0470099.2989598-2.1087504.4484375-3.1852535.4484375h-5.8396313v-15.4875h5.6626728c1.1059963 0 2.1972296.12760289 3.2737327.3828125s2.0350189.678122 2.8755761 1.26875c.8405571.590628 1.5188914 1.3817659 2.035023 2.3734375s.7741935 2.2166594.7741935 3.675zm-3.9373271 0c0-.8750044-.1437774-1.600518-.4313365-2.1765625-.287559-.5760445-.6709653-1.035415-1.1502304-1.378125-.479265-.34271-1.0248817-.5869784-1.6368663-.7328125-.6119847-.1458341-1.2423931-.21875-1.8912443-.21875h-1.8801843v9.05625h1.7917051c.6783444 0 1.3308724-.0765617 1.9576037-.2296875.6267312-.1531258 1.1797211-.4046858 1.6589861-.7546875.4792651-.3500018.8626714-.8166638 1.1502304-1.4.2875591-.5833363.4313365-1.305204.4313365-2.165625z"/><path d="m60.4682028 24.653125-1.2165899-3.040625h-6.0608295l-1.1502304 3.040625h-4.1142857l6.5695852-15.4875h3.6718894l6.5032258 15.4875zm-4.202765-11.353125-1.9907834 5.315625h3.9373272z"/><path d="m139.251613 24.653125-3.384332-6.146875h-1.282949v6.146875h-3.716129v-15.4875h5.97235c.752077 0 1.485711.07656173 2.200922.2296875s1.356679.41197734 1.924424.7765625c.567744.3645852 1.021196.8458303 1.360368 1.44375s.508756 1.3416622.508756 2.23125c0 1.0500052-.287555 1.9322881-.862673 2.646875s-1.371423 1.2249985-2.38894 1.53125l4.092166 6.628125zm-.154839-10.740625c0-.3645852-.077418-.6598947-.232258-.8859375-.154839-.2260428-.353916-.401041-.597235-.525s-.516127-.2078123-.818433-.2515625-.593547-.065625-.873733-.065625h-2.012903v3.609375h1.791705c.309679 0 .626727-.0255206.951152-.0765625.324426-.0510419.619354-.1421868.884793-.2734375s.482948-.3208321.652534-.56875.254378-.568748.254378-.9625z"/></g><path d="m17.1543031 0c-5.3619081 0-11.8297098 1.25180851-17.15429784 4.00712766 0 5.95074468-.07349775 20.77585104 17.15429784 30.90537234 17.2281765-10.1295213 17.1550595-24.95462766 17.1550595-30.90537234-5.3249688-2.75531915-11.7927705-4.00712766-17.1550595-4.00712766z" fill="#68bc71"/><path d="m17.1367803 34.9021919c-17.21022294-10.1292683-17.13677504-24.9463378-17.13677504-30.89506424 5.31878904-2.75231834 11.77830294-4.00439919 17.13677504-4.00712321v34.90219085z" fill="#67b279"/><path d="m16.5285819 23.2947567 10.3734917-13.88033502c-.7601484-.60488994-1.4269071-.17797112-1.7939502.15254668l-.0133931.00105935-8.6494027 8.93280849-3.2588648-3.8934714c-1.5546844-1.7832424-3.66825892-.4230346-4.1619934-.0635611z" fill="#fff"/></g></svg>