<svg height="246" viewBox="0 0 221 246" width="221" xmlns="http://www.w3.org/2000/svg"><path d="m206.778 98.852-164.526-94.99c-8.731-5.041-19.155-5.039-27.886-.001-8.731 5.04-13.944 14.069-13.944 24.15v189.98c0 10.081 5.212 19.109 13.944 24.15 4.365 2.521 9.152 3.78 13.941 3.78 4.79 0 9.579-1.262 13.944-3.781l164.528-94.989c8.73-5.042 13.941-14.07 13.941-24.151 0-10.08-5.212-19.108-13.942-24.148zm-13.326 25.222-164.527 94.989c-.201.117-.62.358-1.236 0-.618-.357-.618-.839-.618-1.071v-189.98c0-.232 0-.714.618-1.071.242-.14.453-.188.633-.188.28 0 .482.117.605.188l164.526 94.99c.201.116.618.357.618 1.071s-.419.956-.619 1.072z" fill="#fff"/></svg>