<svg viewBox="0 0 22 18" xmlns="http://www.w3.org/2000/svg"><g fill="none" fill-rule="evenodd" transform="translate(-1 -3)"><path d="m0 0h24v24h-24z"/><path d="m18.291 16.008 1.364.882a9.003 9.003 0 0 1 -7.577 4.11c-4.818 0-8.765-3.785-9.011-8.53l-.864.949-1.203-1.09 2.786-3.06 3.068 2.78-1.092 1.2-1.076-.975c.145 3.942 3.404 7.106 7.392 7.106a7.384 7.384 0 0 0 6.213-3.372zm3.393-6.91-.771 1.064a9.034 9.034 0 0 0 -8.835-7.162 8.994 8.994 0 0 0 -7.06 3.394l1.27 1.01a7.375 7.375 0 0 1 5.79-2.784 7.407 7.407 0 0 1 7.245 5.877l-1.158-.835-.952 1.313 3.359 2.422 2.428-3.35z" fill="#67b279" fill-rule="nonzero"/></g></svg>