<svg height="18" viewBox="0 0 22 18" width="22" xmlns="http://www.w3.org/2000/svg"><g fill="none" fill-rule="evenodd" transform="translate(-1 -3)"><path d="m0 0h24v24h-24z"/><path d="m18.2914876 16.0083773 1.3630986.8811449c-1.6728314 2.5741257-4.5051373 4.1104778-7.5761878 4.1104778-4.81798368 0-8.7658011-3.7849237-9.01152001-8.5303624l-.86406377.9492119-1.20281462-1.0890722 2.78585217-3.06015904 3.0683106 2.77882364-1.09209788 1.199619-1.07615668-.9745507c.14496544 3.9426702 3.40419703 7.1060476 7.39236569 7.1060476 2.5184631 0 4.8411482-1.2599851 6.2132137-3.3711805zm3.3921166-6.91004447-.7710318 1.06360927c-.8533533-4.08414531-4.4900679-7.1619421-8.834174-7.1619421-2.76281212 0-5.33619776 1.23700627-7.06046453 3.39403517l1.27044025 1.0100748c1.41403574-1.76924563 3.52450339-2.78379199 5.79002428-2.78379199 3.5634847 0 6.5466094 2.52568384 7.2446603 5.87661822l-1.1577308-.83506311-.951865 1.31314691 3.3584905 2.4217202 2.4280466-3.3493196z" fill="#646464" fill-rule="nonzero" opacity=".5"/></g></svg>