<svg height="60" viewBox="0 0 60 60" width="60" xmlns="http://www.w3.org/2000/svg"><g fill="none" fill-rule="evenodd"><rect fill="#6794b9" height="60" rx="4" width="60"/><circle cx="41" cy="31" fill="#fff" r="1"/><g stroke="#fff" stroke-width="2"><path d="m37 19c0-3.8659932-3.1340068-7-7-7s-7 3.1340068-7 7"/><path d="m30 37.372889c.5174473 0 .9056852.1173296 1.2306664-.849818.3411632-1.0153053.6126134-3.1237101.8906539-3.4017507.5428933-.5428932.8786797-1.2928932.8786797-2.1213203 0-1.6568542-1.3431458-3-3-3s-3 1.3431458-3 3c0 .8284271.3357864 1.5784271.8786797 2.1213203.2780571.2780572.549523 2.3865775.8907149 3.4019322.3249688.9670765.7131905.8496365 1.2306054.8496365z"/><path d="m37 24h2c1.1992702 0 2 1.1983033 2 2v2" stroke-linecap="round"/><rect height="26" rx="7" width="30" x="15" y="20"/></g></g></svg>