<svg height="60" viewBox="0 0 60 60" width="60" xmlns="http://www.w3.org/2000/svg"><g fill="none" fill-rule="evenodd"><rect fill="#90cdb1" height="60" rx="4" width="60"/><path d="m45 20.6959166c-1.1039041.4894912-2.2899565.8203695-3.534954.9691387 1.2706615-.7617172 2.2465971-1.9678672 2.7062056-3.4051691-1.1893922.7054088-2.5064599 1.2175758-3.9084884 1.4935518-1.1226541-1.1961891-2.7223189-1.9435509-4.4926085-1.9435509-3.3990753 0-6.1547926 2.7556001-6.1547926 6.1546169 0 .4824014.0544335.9521466.1593747 1.402673-5.1152244-.2567573-9.6504304-2.7070259-12.6860495-6.4308273-.5298036.9090217-.8333773 1.9662853-.8333773 3.0942713 0 2.1353865 1.0865604 4.0192891 2.7380806 5.1230174-1.0089238-.0319922-1.9579649-.3088471-2.7877094-.7698618-.0005859.025664-.0005859.0514452-.0005859.0774022 0 2.9820645 2.121617 5.4695987 4.9371583 6.0351444-.5163857.1405662-1.0601932.2160348-1.6215202.2160348-.3966204 0-.7821665-.0386718-1.1580447-.1106248.7832798 2.4451124 3.0562441 4.2248355 5.7495591 4.2743471-2.1064412 1.6509343-4.7603227 2.63478-7.6440085 2.63478-.4968154 0-.9867168-.0290624-1.4682393-.0861912 2.7237837 1.7465005 5.9590313 2.7654438 9.4348058 2.7654438 11.3209349 0 17.5117627-9.3786145 17.5117627-17.511997 0-.2668355-.0060938-.5322646-.0178711-.7962875 1.202693-.8677132 2.246187-1.9516955 3.0713026-3.1859118z" stroke="#fff" stroke-width="2"/></g></svg>