<svg height="24" viewBox="0 0 24 24" width="24" xmlns="http://www.w3.org/2000/svg"><g fill="none" fill-rule="evenodd"><path d="m0 0h24v24h-24z" fill="#878787" fill-opacity=".01" fill-rule="evenodd"/><path d="m8.52086095 12.7600465c-.06262152-.5082327-.06262152-1.0164654.12524303-1.4611691.25048607-.69882.06262152-4.38350731-.06262152-5.27291459-.06262151-.25411637-.25048606-.63529092-.43835061-.95293638l-.17925468-.36160511c-.2663414-.55930421-.45265335-1.16886847.36711923-1.48073855 2.8805897-1.01646547 3.4441834 1.5246982 3.8199125 3.74821641.1878645.7623491.125243 1.01646547.4383506 1.27058184l.3483031-.31159728c1.0201765-.90742216 2.3147593-1.97545003 3.6594739-1.97545003 1.4402949 0 1.816024.95293638 1.8786455 1.52469821 1.0019443.25411636 1.5655379 1.5246982 1.3150519 2.47763458.7514581.5082327.9393227 1.5246982.6262151 2.3505764.3131076.4447036.9393228 1.6517564.3131076 2.6046928-.5009721.69882-7.5145819 4.5105655-8.3286617 4.8282109-.0626215.4447037-.375729.8258782-.7514581 1.0799946l-1.6281595.9529364c-.75145816.4447036-1.6907809.1905872-2.06651-.5717619l-3.06845429-5.2729146c-.3757291-.7623491-.12524303-1.7152855.56359365-2.1599891l1.69078093-.9529364c.43835062-.2541163.93932275-.2541163 1.37767336-.0635291zm3.97913905 6.7399535-3.97913905-6.7399535" stroke="#4d4d4d" stroke-linecap="round" stroke-linejoin="round" stroke-width="1.5"/></g></svg>